<svg id="Group_5012" data-name="Group 5012" xmlns="http://www.w3.org/2000/svg" width="20" height="20" viewBox="0 0 20 20">
  <g id="_001-android" data-name="001-android" transform="translate(2.5 0)">
    <path id="Subtraction_1" data-name="Subtraction 1" d="M9.9,20a1.221,1.221,0,0,1-1.188-1.25V15.834H7.125V18.75A1.221,1.221,0,0,1,5.937,20,1.221,1.221,0,0,1,4.75,18.75V15.793a2.068,2.068,0,0,1-1.583-2.041V7.087a.408.408,0,0,1,.4-.417h8.708a.407.407,0,0,1,.4.417v6.665a2.067,2.067,0,0,1-1.583,2.041V18.75A1.221,1.221,0,0,1,9.9,20Zm4.75-5a1.221,1.221,0,0,1-1.187-1.25V7.919a1.189,1.189,0,1,1,2.375,0v5.832A1.221,1.221,0,0,1,14.646,15ZM1.188,15A1.221,1.221,0,0,1,0,13.752V7.919A1.221,1.221,0,0,1,1.188,6.67a1.221,1.221,0,0,1,1.188,1.25v5.832A1.221,1.221,0,0,1,1.188,15ZM12.271,5.837H3.563a.408.408,0,0,1-.4-.417A4.447,4.447,0,0,1,5.039,1.731L4.075.715a.43.43,0,0,1,0-.578.382.382,0,0,1,.56-.01L5.758,1.31a5.171,5.171,0,0,1,4.317,0L11.2.127l0,0,.006-.006a.382.382,0,0,1,.56.01.434.434,0,0,1-.01.589l-.965,1.015A4.448,4.448,0,0,1,12.667,5.42.407.407,0,0,1,12.271,5.837ZM9.9,3.337a.417.417,0,1,0,.4.416A.407.407,0,0,0,9.9,3.337Zm-3.958,0a.417.417,0,1,0,.4.416A.407.407,0,0,0,5.937,3.337Z" transform="translate(0 0)" fill="#47ba38"/>
  </g>
  <rect id="Rectangle_3029" data-name="Rectangle 3029" width="20" height="20" transform="translate(0)" fill="none"/>
</svg>
