<?xml version="1.0" encoding="utf-8"?>
<!-- Generator: Adobe Illustrator 25.2.0, SVG Export Plug-In . SVG Version: 6.00 Build 0)  -->
<svg version="1.1" id="Layer_1" xmlns="http://www.w3.org/2000/svg" xmlns:xlink="http://www.w3.org/1999/xlink" x="0px" y="0px"
	 viewBox="0 0 21 21.2" style="enable-background:new 0 0 21 21.2;" xml:space="preserve">
<style type="text/css">
	.st0{fill:none;}
</style>
<g id="Group_5014" transform="translate(-0.412)">
	<g id="_002-apple" transform="translate(2.118)">
		<path id="Path_13146" d="M5.6,21.2c-3.1,0-5.6-6.5-5.6-9.7c0-5.4,3.9-6.5,5.4-6.5c0.7,0.1,1.4,0.2,2,0.5c0.4,0.2,0.8,0.3,1.2,0.3
			c0.3-0.1,0.6-0.2,0.8-0.3c0.8-0.4,1.7-0.6,2.5-0.6h0c1.7,0,3.4,0.8,4.3,2.2l0.3,0.5L16.2,8c-1.1,0.7-1.8,1.9-1.8,3.2
			c0,1.4,0.7,2.7,2,3.4c0.3,0.2,0.6,0.4,0.6,0.8c0,0.3-2,5.8-4.9,5.8c-0.6,0-1.1-0.2-1.7-0.4c-0.5-0.2-1-0.4-1.5-0.4
			c-0.4,0-0.8,0.2-1.2,0.3C7,21,6.3,21.1,5.6,21.2L5.6,21.2z"/>
		<path id="Path_13147" d="M12.3,0c0.1,2.8-1.9,4.8-3.9,4.6C8.3,2.3,10,0.3,12.3,0z"/>
	</g>
	<rect id="Rectangle_3030" x="0.4" class="st0" width="21" height="21"/>
</g>
</svg>
