<?xml version="1.0" encoding="utf-8"?>
<!-- Generator: Adobe Illustrator 24.0.1, SVG Export Plug-In . SVG Version: 6.00 Build 0)  -->
<svg version="1.1" id="Layer_1" xmlns="http://www.w3.org/2000/svg" xmlns:xlink="http://www.w3.org/1999/xlink" x="0px" y="0px"
	 viewBox="0 0 1200 1200" style="enable-background:new 0 0 1200 1200;" xml:space="preserve">
<style type="text/css">
	.st0{fill:#2178bb;}
	.st1{fill:#fff;}
</style>
<g>
	<g>
		<g>
			<path class="st0" d="M498.9,452.6v80c0.6-0.3,1.3-0.5,1.9-0.8c3.4-1.4,7-2.8,10.7-4.1l14-4.9l0.1,0l0.1,0
				c7.5-2.5,15.3-4.8,23.2-6.9c0.4-0.1,0.7-0.2,1.1-0.3c1.1-0.3,2.2-0.6,3.2-0.8v-62.1h101.2l54.3-54.3H381.6l54.3,54.3H498.9z"/>
			<path class="st0" d="M641.3,489.8l-12,12c0.3,0,0.6,0,0.8-0.1h0l2.3-0.2c4.1-0.3,8.4-0.6,12.7-0.9l0.1,0l0.1,0
				c3.1-0.1,6.3-0.2,9.3-0.3c1.8-0.1,3.7-0.1,5.5-0.2h0l0.7,0c2.3-0.1,4.6-0.1,7-0.1h0.7c1.5,0,3,0,4.4,0.1c0.7,0,1.5,0,2.2,0l0.4,0
				l0.1,0l0.1,0c0.1,0,0.2,0,0.4,0h0.2l0.2,0c1.6,0,3.2,0.1,4.7,0.1c3,0.1,6.2,0.1,9.3,0.2c2.1,0.1,4,0.2,5.9,0.3
				c0.6,0,1.3,0.1,1.9,0.1l0,0h0l7.3,0.5c0.2,0,0.5,0,0.7,0.1l103.2-103.2h-76.8l-91,90.9L641.3,489.8z"/>
			<path class="st0" d="M603.4,495.5c1.2-1.8,2.7-3.3,3.9-5.1c1-1.5,2.4-2.5,4.1-3.2c5.5-2.5,8.7-6.8,9.7-12.8
				c0.4-2.5,0.5-5.1,0.6-7.7c0-1.3-0.5-1.9-1.8-1.9h-7c-1.3,0-1.4-0.2-1.3-1.4c0-0.4,0.3-0.5,0.5-0.7c0.4-0.4,0.5-0.9,0.4-1.5
				c-0.1-0.6-0.5-0.9-1.1-1c-0.3,0-0.5-0.1-0.8-0.1h-25.3c-0.7,0-1.5,0.1-1.8,0.9c-0.3,0.7,0,1.4,0.6,1.9c0.5,0.4,0.3,1.1,0.2,1.7
				c-0.1,0.5-0.6,0.3-1,0.3h-7.1c-1.4,0-1.9,0.5-1.9,1.9c0,2.4,0.1,4.8,0.5,7.2c0.6,4,2.3,7.5,5.2,10.3c1.8,1.7,4,2.8,6.3,3.8
				c0.4,0.2,0.8,0.3,1.1,0.7c1,1.6,2.3,3.1,3.5,4.5c1.9,2.3,3.4,4.8,3.7,7.8c0,0.6,0.1,1.1-0.6,1.3c-0.4,0.1-0.6,0.4-0.7,0.8
				c-0.2,0.5-0.5,0.6-1,0.6c-1.3,0-2.7,0-4,0c-0.6,0-1,0.2-1.2,0.8c-0.5,1.6-1.1,3.1-1.6,4.7c2.4-0.5,4.8-1,7.2-1.4l0.3,0l5.8-1
				l1.4-0.2l7.5-1.2c0.5-0.1,1.1-0.2,1.6-0.3c-0.1-0.1-0.1-0.3-0.1-0.4c-0.2-0.7-0.6-1-1.4-1c-1.2,0-2.4,0-3.6,0
				c-0.6,0-1.1-0.1-1.3-0.8c-0.1-0.3-0.4-0.6-0.7-0.7c-0.5-0.2-0.6-0.6-0.5-1C601.6,499.2,602.2,497.2,603.4,495.5z M611.6,474.4
				v-5.8c0-0.5,0.1-0.8,0.7-0.8h5.8c0.4,0,0.6,0.1,0.6,0.6c-0.1,3-0.3,6.1-1.4,8.9c-1.2,3.2-3.5,5.3-6.5,7.1
				C611.7,480.9,611.6,477.7,611.6,474.4z M585.1,484.3c-3.3-1.9-5.7-4.5-6.8-8.2c-0.7-2.5-1-5.1-1-7.7c0-0.4,0.1-0.6,0.6-0.6
				c1.9,0,3.9,0,5.8,0c0.7,0,0.7,0.4,0.7,0.9v8.9c0,2.1,0.2,4.2,0.8,6.3C585.1,484,585.2,484.1,585.1,484.3z"/>
			<path class="st0" d="M521.5,317c2.7,0.1,3.6,1.4,4.3,3.7c5.8,19.6,11.7,46.6,17.4,66.2h115c5.8-19.7,11.7-46.7,17.5-66.4
				c0.7-2.3,1.6-3.2,4.1-3.4c7-0.6,11-7.6,8.2-14.1c-1.7-3.9-5-5.7-9.1-5.9c-4.1-0.3-7.6,2.2-9.2,6.1c-1.8,4.1-1.1,7.9,1.9,11.2
				c1,1.1,2.2,1.8,0.6,3.4c-7.2,7.3-14.8,14-24.2,18.3c-9.8,4.4-19.6,2.1-26.6-6.2c-6.5-7.7-10.7-16.8-15.2-25.6
				c-1.3-2.6-1.7-4.2,1.1-6.1c3.2-2.2,4.1-7.1,2.8-11c-1.4-3.9-4.5-6.2-8.5-6.5c-4.9-0.3-8.5,1.9-10.2,6.1c-1.7,4.4-0.5,9,3.3,12
				c1.2,1,2.3,1.8,1.3,3.6c-4.7,8.9-8.5,18.3-15.1,26.1c-8.9,10.7-17.8,12.6-30.3,6.3c-8-4-14.5-10-20.8-16.2c-1.7-1.7-2-2.6,0-4.4
				c3.4-3.2,3.6-8.6,0.9-12.7c-2.6-3.9-7.3-5.3-11.8-3.6c-4.6,1.8-6.8,5.7-6.2,11C513.1,313,516.8,316.7,521.5,317z"/>
			<path class="st0" d="M791.2,530.1c-4.7-1.4-9.4-2.6-14.1-3.8c-2.4-0.6-4.7-1.2-7.1-1.8c-1.2-0.3-2.4-0.6-3.6-0.9l-3.6-0.8
				c-4.8-1-9.6-1.9-14.4-2.8c-2.4-0.5-4.8-0.9-7.2-1.3l-7.2-1c-9.7-1.4-19.4-2.6-29.2-3.2l-7.3-0.5c-2.4-0.2-4.9-0.4-7.3-0.4
				c-4.6-0.2-9.3-0.2-13.9-0.3c-0.3,0-0.5,0-0.8,0c-0.1,0-0.2,0-0.3,0c-2.1,0-4.3-0.1-6.4-0.1H668c-2.5,0-4.9,0.1-7.4,0.2
				c-4.9,0.2-9.8,0.3-14.7,0.5c-4.9,0.3-9.8,0.7-14.7,1c-2.5,0.2-4.9,0.3-7.4,0.6l-7.3,0.9c-2.5,0.3-4.9,0.6-7.3,0.9
				c-2.4,0.3-4.9,0.6-7.3,1l-7.5,1.2l-1.4,0.2l-5.7,1c-11.4,2.1-22.8,4.7-34.1,7.6c-0.3,0.1-0.5,0.1-0.8,0.2
				c-7.6,2-15.1,4.2-22.6,6.7l-14,4.9c-4.7,1.6-9.2,3.6-13.8,5.4l-2.3,0.9l-0.8,0.3l-0.4,0.2l-3.4,1.5c-2.3,1-4.5,2-6.8,3l-3.4,1.6
				c-1.1,0.5-2.2,1.1-3.3,1.6l-6.7,3.3c-17.6,9-34.6,19.3-50.4,31.4c-3.9,3-7.8,6.1-11.6,9.3c-3.7,3.3-7.5,6.5-11,10
				c-7.1,6.9-13.9,14.2-19.6,22.5l1.9,2.2c7.3-5.9,15.2-11.2,23.1-16.2c8-5,16.2-9.7,24.6-14.1c16.6-8.9,33.9-16.7,51.5-23.5
				c5.1-2,10.2-3.9,15.3-5.7v59.7h54.3v-76.1c9-2.2,18.1-4.3,27.2-6.1v57.7l43.1-43.1l67.6,67.6h76.8l-0.8-0.8l-83.7-83.7l-5-5
				l-4.9-4.9c10.6-0.7,21.2-1.2,31.8-1.4l7.1-0.2c1.8,0,3.7-0.1,5.6-0.1c0.5,0,1,0,1.5,0l14.2,0.1l7.1,0l7.1,0.3l14.2,0.5l3.5,0.1
				c1.2,0.1,2.4,0.1,3.5,0.2l7.1,0.4l14.2,0.9c9.4,0.8,18.9,1.7,28.3,2.6l0.4-2.9c-4.6-1.9-9.2-3.5-13.8-5.2
				C800.5,533.1,795.8,531.5,791.2,530.1z"/>
		</g>
	</g>
	<path class="st0" d="M643.7,979.2L855,840c3-1.9,5.8-4.1,8.4-6.4h-35.1L632.6,962.4c-9.4,6.2-20.4,9.6-31.7,9.6s-22.3-3.3-31.7-9.6
		L373.7,833.6h-35.1c2.6,2.3,5.4,4.5,8.4,6.4l211.3,139.2C583.7,996,618.2,996,643.7,979.2z"/>
	<path class="st1" d="M873.4,860.8l-222.7,146.7c-14.7,9.7-32,14.9-49.7,14.9s-34.9-5.2-49.7-15L328.6,860.8
		c-10.9-7.2-19.9-16.5-26.7-27.2h-51.7c10,26.6,28.3,49.9,52.8,66.1l222.7,146.7c45.6,30.1,104.9,30.1,150.6,0l222.6-146.7
		c24.5-16.2,42.7-39.4,52.8-66.1h-51.7C893.3,844.3,884.3,853.6,873.4,860.8z"/>
	<path class="st1" d="M868.5,226H333.4c-11.8,0-21.4,9.6-21.4,21.4v403.9h20V247.4c0-0.8,0.6-1.3,1.3-1.3h535.1
		c0.7,0,1.3,0.6,1.3,1.3v403.9h20V247.4C889.9,235.6,880.3,226,868.5,226z"/>
	<path class="st0" d="M883,149.1H318.9c-42.8,0-77.5,34.7-77.5,77.5v424.6h46.5V226.7c0-17.1,13.9-31,31-31H883
		c17.1,0,31,13.9,31,31v424.6h46.5V226.7C960.5,183.8,925.8,149.1,883,149.1z"/>
	<path class="st0" d="M613,707.3c-2.8-2.4-6.8-3.6-12-3.6h-20.1v27.4H601c5.2,0,9.2-1.2,12-3.5c2.8-2.3,4.2-5.7,4.2-10.1
		C617.2,713.1,615.8,709.7,613,707.3z M615.2,752c-3.1-2.7-7.4-4-12.7-4h-21.6v29.4H603c5.3,0,9.5-1.3,12.5-3.8
		c3-2.5,4.5-6.1,4.5-10.6C619.9,758.4,618.3,754.7,615.2,752z M615.2,752c-3.1-2.7-7.4-4-12.7-4h-21.6v29.4H603
		c5.3,0,9.5-1.3,12.5-3.8c3-2.5,4.5-6.1,4.5-10.6C619.9,758.4,618.3,754.7,615.2,752z M613,707.3c-2.8-2.4-6.8-3.6-12-3.6h-20.1
		v27.4H601c5.2,0,9.2-1.2,12-3.5c2.8-2.3,4.2-5.7,4.2-10.1C617.2,713.1,615.8,709.7,613,707.3z M613,707.3c-2.8-2.4-6.8-3.6-12-3.6
		h-20.1v27.4H601c5.2,0,9.2-1.2,12-3.5c2.8-2.3,4.2-5.7,4.2-10.1C617.2,713.1,615.8,709.7,613,707.3z M615.2,752
		c-3.1-2.7-7.4-4-12.7-4h-21.6v29.4H603c5.3,0,9.5-1.3,12.5-3.8c3-2.5,4.5-6.1,4.5-10.6C619.9,758.4,618.3,754.7,615.2,752z
		 M736.3,711.2L720.4,757h31.6L736.3,711.2z M615.2,752c-3.1-2.7-7.4-4-12.7-4h-21.6v29.4H603c5.3,0,9.5-1.3,12.5-3.8
		c3-2.5,4.5-6.1,4.5-10.6C619.9,758.4,618.3,754.7,615.2,752z M613,727.6c2.8-2.3,4.2-5.7,4.2-10.1c0-4.4-1.4-7.8-4.2-10.2
		c-2.8-2.4-6.8-3.6-12-3.6h-20.1v27.4H601C606.2,731.1,610.2,730,613,727.6z M736.3,711.2L720.4,757h31.6L736.3,711.2z M1007,817.2
		l-23.2-76.5l21.8-71.9H196.3l21.8,71.9l-23.2,76.5H1007z M942.2,724.1c10.5,0,19,8.5,19,19s-8.5,19-19,19s-19-8.5-19-19
		S931.7,724.1,942.2,724.1z M828.6,686h80.2v17.7h-29.1v91.6h-21.9v-91.6h-29.1V686z M723.6,685.9h25.5l39.3,109.5h-23.2l-7.2-20.8
		h-43.5l-7.2,20.8h-23L723.6,685.9z M559,686h45.1c7.4,0,13.8,1.2,19.2,3.6c5.4,2.4,9.4,5.7,12.2,10s4.2,9.1,4.2,14.6
		c0,6.4-1.7,11.7-5.1,16c-3.4,4.3-7.9,7.3-13.6,9.1c6.2,1.2,11.2,4.2,15.2,9.2c4,5,5.9,10.8,5.9,17.2c0,5.8-1.4,11-4.3,15.4
		c-2.9,4.4-7,7.9-12.5,10.4c-5.4,2.5-11.9,3.8-19.3,3.8H559V686z M423.8,686h21.9v49l39.8-49H512l-45.1,54.2l46.4,55.1h-27.7
		l-39.8-48.7v48.7h-21.9V686z M296.4,686h80.2v17.7h-29.1v91.6h-21.9v-91.6h-29.1V686z M259.9,723.4c10.5,0,19,8.5,19,19
		c0,10.5-8.5,19-19,19c-10.5,0-19-8.5-19-19C240.9,731.9,249.4,723.4,259.9,723.4z M736.3,711.2L720.4,757h31.6L736.3,711.2z
		 M619.9,763.1c0-4.7-1.6-8.4-4.7-11c-3.1-2.7-7.4-4-12.7-4h-21.6v29.4H603c5.3,0,9.5-1.3,12.5-3.8
		C618.4,771.2,619.9,767.7,619.9,763.1z M613,727.6c2.8-2.3,4.2-5.7,4.2-10.1c0-4.4-1.4-7.8-4.2-10.2c-2.8-2.4-6.8-3.6-12-3.6h-20.1
		v27.4H601C606.2,731.1,610.2,730,613,727.6z M736.3,711.2L720.4,757h31.6L736.3,711.2z M613,707.3c-2.8-2.4-6.8-3.6-12-3.6h-20.1
		v27.4H601c5.2,0,9.2-1.2,12-3.5c2.8-2.3,4.2-5.7,4.2-10.1C617.2,713.1,615.8,709.7,613,707.3z M615.2,752c-3.1-2.7-7.4-4-12.7-4
		h-21.6v29.4H603c5.3,0,9.5-1.3,12.5-3.8c3-2.5,4.5-6.1,4.5-10.6C619.9,758.4,618.3,754.7,615.2,752z M736.3,711.2L720.4,757h31.6
		L736.3,711.2z M615.2,752c-3.1-2.7-7.4-4-12.7-4h-21.6v29.4H603c5.3,0,9.5-1.3,12.5-3.8c3-2.5,4.5-6.1,4.5-10.6
		C619.9,758.4,618.3,754.7,615.2,752z M613,707.3c-2.8-2.4-6.8-3.6-12-3.6h-20.1v27.4H601c5.2,0,9.2-1.2,12-3.5
		c2.8-2.3,4.2-5.7,4.2-10.1C617.2,713.1,615.8,709.7,613,707.3z"/>
	<path class="st1" d="M518.4,835l5.7,17.6c0.1,0.4,0.5,0.7,1,0.7h18.5c1,0,1.4,1.3,0.6,1.8l-15,10.9c-0.4,0.3-0.5,0.7-0.4,1.1
		l5.7,17.6c0.3,0.9-0.8,1.7-1.6,1.1l-15-10.9c-0.4-0.3-0.8-0.3-1.2,0l-15,10.9c-0.8,0.6-1.9-0.2-1.6-1.1l5.7-17.6
		c0.1-0.4,0-0.9-0.4-1.1l-15-10.9c-0.8-0.6-0.4-1.8,0.6-1.8h18.5c0.4,0,0.8-0.3,1-0.7l5.7-17.6C516.8,834,518.1,834,518.4,835z"/>
	<path class="st1" d="M600.9,861.2l5.7,17.6c0.1,0.4,0.5,0.7,1,0.7h18.5c1,0,1.4,1.3,0.6,1.8l-15,10.9c-0.4,0.3-0.5,0.7-0.4,1.1
		l5.7,17.6c0.3,0.9-0.8,1.7-1.6,1.1l-15-10.9c-0.4-0.3-0.8-0.3-1.2,0l-15,10.9c-0.8,0.6-1.9-0.2-1.6-1.1l5.7-17.6
		c0.1-0.4,0-0.9-0.4-1.1l-15-10.9c-0.8-0.6-0.4-1.8,0.6-1.8h18.5c0.4,0,0.8-0.3,1-0.7l5.7-17.6C599.3,860.3,600.6,860.3,600.9,861.2
		z"/>
	<path class="st1" d="M683.4,835l5.7,17.6c0.1,0.4,0.5,0.7,1,0.7h18.5c1,0,1.4,1.3,0.6,1.8l-15,10.9c-0.4,0.3-0.5,0.7-0.4,1.1
		l5.7,17.6c0.3,0.9-0.8,1.7-1.6,1.1l-15-10.9c-0.4-0.3-0.8-0.3-1.2,0l-15,10.9c-0.8,0.6-1.9-0.2-1.6-1.1l5.7-17.6
		c0.1-0.4,0-0.9-0.4-1.1l-15-10.9c-0.8-0.6-0.4-1.8,0.6-1.8h18.5c0.4,0,0.8-0.3,1-0.7l5.7-17.6C681.7,834,683.1,834,683.4,835z"/>
</g>
</svg>
